<svg xmlns:dc="http://purl.org/dc/elements/1.1/" xmlns:cc="http://creativecommons.org/ns#" xmlns:rdf="http://www.w3.org/1999/02/22-rdf-syntax-ns#" xmlns:svg="http://www.w3.org/2000/svg" xmlns="http://www.w3.org/2000/svg" xmlns:xlink="http://www.w3.org/1999/xlink" xmlns:sodipodi="http://sodipodi.sourceforge.net/DTD/sodipodi-0.dtd" xmlns:inkscape="http://www.inkscape.org/namespaces/inkscape" width="256" height="256" id="svg7490" version="1.1" inkscape:version="0.48.3.1 r9886" viewBox="0 0 1292 1792">
  <g transform="matrix(1 0 0 -1 0 1536)">
   <path fill="#CE1919" d="M1024 352v-64q0 -14 -9 -23t-23 -9h-704q-14 0 -23 9t-9 23v64q0 14 9 23t23 9h704q14 0 23 -9t9 -23zM1024 608v-64q0 -14 -9 -23t-23 -9h-704q-14 0 -23 9t-9 23v64q0 14 9 23t23 9h704q14 0 23 -9t9 -23zM128 0h1024v768h-416q-40 0 -68 28t-28 68v416h-512v-1280z
M768 896h299l-299 299v-299zM1280 768v-800q0 -40 -28 -68t-68 -28h-1088q-40 0 -68 28t-28 68v1344q0 40 28 68t68 28h544q40 0 88 -20t76 -48l408 -408q28 -28 48 -76t20 -88z" />
  </g>
</svg>