<svg xmlns:dc="http://purl.org/dc/elements/1.1/" xmlns:cc="http://creativecommons.org/ns#" xmlns:rdf="http://www.w3.org/1999/02/22-rdf-syntax-ns#" xmlns:svg="http://www.w3.org/2000/svg" xmlns="http://www.w3.org/2000/svg" xmlns:xlink="http://www.w3.org/1999/xlink" xmlns:sodipodi="http://sodipodi.sourceforge.net/DTD/sodipodi-0.dtd" xmlns:inkscape="http://www.inkscape.org/namespaces/inkscape" width="256" height="256" id="svg7490" version="1.1" inkscape:version="0.48.3.1 r9886" viewBox="0 -410 2048 2048">
  <g transform="matrix(1 0 0 -1 0 1638)">
   <path fill="#CE1919" d="M512 832v320h128v-320q0 -133 93.5 -226.5t226.5 -93.5t226.5 93.5t93.5 226.5v640q0 80 -56 136t-136 56t-136 -56t-56 -136v-512q0 -26 19 -45t45 -19t45 19t19 45v452h128v-452q0 -80 -56 -136t-136 -56t-136 56t-56 136v512q0 133 93.5 226.5t226.5 93.5t226.5 -93.5
t93.5 -226.5v-640q0 -185 -131.5 -316.5t-316.5 -131.5t-316.5 131.5t-131.5 316.5z" />
  </g>
</svg>