<svg xmlns:dc="http://purl.org/dc/elements/1.1/" xmlns:cc="http://creativecommons.org/ns#" xmlns:rdf="http://www.w3.org/1999/02/22-rdf-syntax-ns#" xmlns:svg="http://www.w3.org/2000/svg" xmlns="http://www.w3.org/2000/svg" xmlns:xlink="http://www.w3.org/1999/xlink" xmlns:sodipodi="http://sodipodi.sourceforge.net/DTD/sodipodi-0.dtd" xmlns:inkscape="http://www.inkscape.org/namespaces/inkscape" width="256" height="256" id="svg7490" version="1.1" inkscape:version="0.48.3.1 r9886" viewBox="0 -410 2048 2048">
  <g transform="matrix(1 0 0 -1 0 1638)">
   <path fill="#CE1919" d="M387 862q0 106 75 181l136 135l91 -90l-136 -136q-38 -37 -38 -90t38 -91l90 -90q38 -38 91 -38t90 38l136 135l91 -90l-136 -136q-75 -75 -181 -75t-181 75l-91 91q-75 75 -75 181zM734 952l362 362l90 -90l-362 -362zM870 1450l135 136q75 75 181 75t181 -75l91 -91
q75 -75 75 -181t-75 -181l-136 -136l-90 91l135 136q38 37 38 90t-38 91l-90 90q-38 38 -91 38t-90 -38l-136 -135z" />
  </g>
</svg>