<svg xmlns:dc="http://purl.org/dc/elements/1.1/" xmlns:cc="http://creativecommons.org/ns#" xmlns:rdf="http://www.w3.org/1999/02/22-rdf-syntax-ns#" xmlns:svg="http://www.w3.org/2000/svg" xmlns="http://www.w3.org/2000/svg" xmlns:xlink="http://www.w3.org/1999/xlink" xmlns:sodipodi="http://sodipodi.sourceforge.net/DTD/sodipodi-0.dtd" xmlns:inkscape="http://www.inkscape.org/namespaces/inkscape" width="256" height="256" id="svg7490" version="1.1" inkscape:version="0.48.3.1 r9886" viewBox="0 -410 2048 2048">
  <g transform="matrix(1 0 0 -1 0 1638)">
   <path fill="#CE1919" d="M384 1216q0 117 45.5 223.5t123 184t184 123t223.5 45.5t223.5 -45.5t184 -123t123 -184t45.5 -223.5t-44.5 -222.5t-124.5 -185.5l-407 -406l-407 406q-80 80 -124.5 185.5t-44.5 222.5zM640 1216q0 -133 93.5 -226.5t226.5 -93.5t226.5 93.5t93.5 226.5t-93.5 226.5
t-226.5 93.5t-226.5 -93.5t-93.5 -226.5z" />
  </g>
</svg>